HIERARCHY
ROOT Hips
{
  OFFSET 0.0 0.0 0.0
  CHANNELS 6 XPOSITION YPOSITION ZPOSITION ZROTATION XROTATION YROTATION 
  JOINT LeftUpLeg
  {
    OFFSET 0.089458 -0.0866707 0.00101652
    CHANNELS 3 ZROTATION XROTATION YROTATION 
    JOINT LeftLeg
    {
      OFFSET 0.0 -0.444227 0.013727
      CHANNELS 3 ZROTATION XROTATION YROTATION 
      JOINT LeftFoot
      {
        OFFSET -0.00253549 -0.420924 -0.0146059
        CHANNELS 3 ZROTATION XROTATION YROTATION 
        End Site
        {
          OFFSET -0.0004 -0.0441509 0.084991
        }
      }
    }
  }
  JOINT Spine
  {
    OFFSET 0.0 0.118905 0.0
    CHANNELS 3 ZROTATION XROTATION YROTATION 
    JOINT Spine1
    {
      OFFSET 0.0 0.256574 0.00127663
      CHANNELS 3 ZROTATION XROTATION YROTATION 
      End Site
      {
        OFFSET -0.0029 0.2150836 0.02525291
      }
      JOINT RightArm
      {
        OFFSET -0.162727 -0.05365632 0.00102123
        CHANNELS 3 ZROTATION XROTATION YROTATION 
        JOINT RightForeArm
        {
          OFFSET -0.26364 0.00099144 -0.0142434
          CHANNELS 3 ZROTATION XROTATION YROTATION 
          End Site
          {
            OFFSET -0.220324 0.00085362 0.0102216
          }
        }
      }
      JOINT LeftArm
      {
        OFFSET 0.162727 -0.0536563199 0.00102123
        CHANNELS 3 ZROTATION XROTATION YROTATION 
        JOINT LeftForeArm
        {
          OFFSET 0.262597 0.00099144 -0.0142434
          CHANNELS 3 ZROTATION XROTATION YROTATION 
          End Site
          {
            OFFSET 0.220902 0.00085362 0.0102216
          }
        }
      }
    }
  }
  JOINT RightUpLeg
  {
    OFFSET -0.089458 -0.0866707 0.00101652
    CHANNELS 3 ZROTATION XROTATION YROTATION 
    JOINT RightLeg
    {
      OFFSET 0.0 -0.444227 0.013727
      CHANNELS 3 ZROTATION XROTATION YROTATION 
      JOINT RightFoot
      {
        OFFSET 0.00253549 -0.420924 -0.0146059
        CHANNELS 3 ZROTATION XROTATION YROTATION 
        End Site
        {
          OFFSET 0.0004 -0.0441509 0.084991
        }
      }
    }
  }
}
MOTION
Frames: 8
Frame Time: 0.033333
-12.4631999543 0.953696657325 0.381662634045 -7.5523339719 5.3205372172 -88.7812167188 1.82043089613 -25.9610026201 -0.219283903654 7.43052352447 68.5850986639 10.6390492833 -8.21287132125 -32.9402060272 -0.671795635534 15.8928239627 14.0611277367 0.164318823422 -7.51295793134 -0.486278146084 4.8581167618 71.6518194503 -12.1003443506 40.1314902232 5.36390464956 24.4825859761 16.2489722241 -66.320638237 -8.36396535097 16.1714803129 -12.1178672009 51.8707958969 -5.45990423901 5.95217859749 1.23348606033 -10.2427864671 2.06079400421 21.1047876391 -16.2669151311 -3.47565957992 -41.6616472577 -1.67920136712 
-12.4941231152 0.955204357958 0.384389837224 -7.53691823494 4.60027754752 -89.0103627353 1.24459493613 -27.8404760193 -0.910515869668 5.53602413599 63.0185013205 12.0994205675 -8.81740538827 -33.5938039044 -0.517746481777 15.7375703478 14.0418333061 0.765380432943 -8.83808293221 -0.615339693094 5.48830459246 68.3315688721 -8.94744450611 42.8815531944 4.26038385565 20.8083181555 19.7840561574 -65.1163666033 -10.9807388881 19.747757117 -12.1050153462 51.055308876 -4.64115153395 4.98426181804 4.12674053237 -10.5953668085 2.19972218636 19.5067265714 -15.4711451588 -3.18898117253 -42.6865820294 -1.63631396899 
-12.5254447206 0.955456326551 0.386931507149 -7.29719908564 3.92432232678 -89.1878452008 0.844663454559 -29.0503313326 -1.24169082507 4.09931006577 55.9878187776 12.9805047251 -9.37126286675 -33.7042002519 -0.401031675631 15.2930923724 13.9366057042 1.20764969585 -9.89085413993 -0.688981031816 5.86923278021 66.6268561081 -7.42505425049 45.1474240553 3.68096354043 18.8500790148 22.5622578004 -64.0130383354 -13.9127111412 22.4322161212 -12.2479934036 50.4422242659 -3.4526343719 4.06929479947 6.75184647335 -11.1503973719 2.27092178581 18.0076349448 -14.5023016081 -2.75744854011 -43.7256757833 -1.55866304242 
-12.5578221631 0.953764345445 0.389287713551 -6.92068191944 3.29784478295 -89.1896825217 0.523265061183 -29.5155833283 -1.18700491548 3.11082545229 47.7879512827 13.7146715137 -9.81090421437 -33.5432263536 -0.317604490097 14.6112431253 13.6715815578 1.474357057 -10.6232075133 -0.62237548163 6.0043983819 66.3267717469 -6.79881725738 46.8999720491 3.5487020498 18.1966484773 24.5995222298 -63.4603940692 -16.2492351864 24.1049635999 -12.4886798785 49.9006141704 -2.20354666541 3.24017151937 9.23368834271 -11.8984875012 2.3165771181 16.6503175549 -13.5622831632 -1.99039823264 -44.8530599775 -1.39253128402 
-12.5917509935 0.950676083793 0.391816688734 -6.33266367672 2.64253274176 -89.103868025 0.148044270219 -29.3382135609 -0.751684356192 2.41841438485 38.8555118485 14.5459140735 -9.63835656047 -32.826787321 -0.218821545204 13.6497702025 13.2147802137 1.64152070757 -11.089225344 -0.37064952678 5.99129935974 66.6779527533 -6.17357576434 47.9654747295 3.51040517912 18.2366136217 25.9075171162 -63.7175028802 -17.621396285 24.711655153 -12.703432125 49.5048217835 -1.2983677348 2.44321373451 11.6014272062 -12.699351087 2.29520054699 15.2319826699 -12.7508353454 -1.26359865683 -45.6627481678 -1.17968786189 
-12.6277400012 0.946358250583 0.394955767487 -5.68878558564 2.00498623604 -89.0914644015 -0.236912154994 -28.8569686772 -0.321570322044 1.74628140201 30.5748090648 15.5556516743 -8.77160299347 -32.0816341731 -0.113738097648 12.5262083529 12.7098473802 1.72632348253 -11.3735311144 -0.0802635806492 5.89659152982 67.1858182992 -5.1290631091 48.1795465184 3.29807423462 18.731061261 26.5259941607 -64.6366550971 -18.1899412315 24.3659195149 -12.7855301451 49.2815941259 -0.932305560503 1.66013841587 13.9690414188 -13.4091443456 2.15533171972 13.9343739399 -11.8429273274 -0.517388910702 -46.23962253 -0.949092884822 
-12.6661944435 0.939509699985 0.398840845739 -5.28360424992 1.52191107516 -89.0830632688 -0.714632447575 -28.4395211755 -0.572321454153 1.0559630405 24.9588157934 16.929279556 -7.78078074775 -32.4170340274 -0.0557004828311 11.4119440983 12.2493039462 1.68405837867 -11.489120967 0.150669023871 5.69434920161 67.7613915103 -3.6697650184 47.4224405395 2.97065524293 19.5477725932 26.4862031861 -65.8528044298 -18.4425267497 23.152543239 -12.7482262132 49.1165289442 -0.900033557005 0.944455826706 16.4877846658 -14.0710511478 1.89580993103 13.27349935 -10.597028252 0.922451731965 -47.2146730151 -0.581173272596 
-12.7072412564 0.929217556696 0.403701627081 -5.16047045334 1.22950085839 -89.0158132262 -1.49632710752 -27.9342579317 -1.00222204489 0.786821143799 22.41944196 18.4942312817 -6.84723774907 -33.4293397793 -0.00636021554259 10.4576778788 11.6816699762 1.57097115002 -11.5093963836 0.425632416196 5.44711129469 68.3494298168 -1.80798095538 45.584262464 2.81174363481 20.2117694334 25.7180288856 -67.0832220277 -18.7771325945 21.0902034777 -12.7124778568 48.9089287595 -0.85905023419 0.285143242334 19.1137226092 -14.6431025427 1.4851060672 13.5163006221 -9.00188709021 3.15424197664 -48.5895593592 0.0265161150391 
